<?xml version="1.0" encoding="utf-8"?>
<!-- Generator: Adobe Illustrator 16.0.0, SVG Export Plug-In . SVG Version: 6.00 Build 0)  -->
<!DOCTYPE svg PUBLIC "-//W3C//DTD SVG 1.1//EN" "http://www.w3.org/Graphics/SVG/1.1/DTD/svg11.dtd">
<svg version="1.1"
	 id="svg6584" xmlns:cc="http://creativecommons.org/ns#" xmlns:dc="http://purl.org/dc/elements/1.1/" xmlns:rdf="http://www.w3.org/1999/02/22-rdf-syntax-ns#" xmlns:svg="http://www.w3.org/2000/svg"
	 xmlns="http://www.w3.org/2000/svg" xmlns:xlink="http://www.w3.org/1999/xlink" x="0px" y="0px" width="100px" height="100px"
	 viewBox="0 0 100 100" enable-background="new 0 0 100 100" xml:space="preserve">
<path id="rect5636" fill="#B8B8B8" d="M41.667,10.417c-1.154,0-2.083,0.929-2.083,2.083v6.25H22.917
	c-2.308,0-4.167,1.858-4.167,4.167s1.858,4.167,4.167,4.167h54.167c2.309,0,4.166-1.858,4.166-4.167
	c0-2.308-1.857-4.167-4.166-4.167H60.416V12.5c0-1.154-0.93-2.083-2.082-2.083H41.667z M43.75,14.583h12.5v4.167h-12.5V14.583z
	 M22.917,31.25c-2.308,0-4.481,1.89-4.102,4.167l8.269,50c0.376,2.276,1.858,4.167,4.167,4.167h37.5c2.31,0,3.787-1.891,4.166-4.167
	l8.271-50c0.375-2.277-1.795-4.167-4.103-4.167H22.917z"/>
</svg>
